<?xml version="1.0" encoding="UTF-8"?>
<svg version="1.1" xmlns="http://www.w3.org/2000/svg" width="702" height="265">
<path d="M0 0 C62.7 0 125.4 0 190 0 C190 22.77 190 45.54 190 69 C195.54390533 68.99333817 201.08781067 68.98667633 206.79971313 68.97981262 C257.65186623 68.92010103 308.50401517 68.87532181 359.35619567 68.84680401 C366.0226201 68.84305194 372.68904445 68.83917246 379.35546875 68.83520508 C380.01884312 68.8348128 380.68221749 68.83442052 381.36569412 68.83401636 C402.8511551 68.821242 424.33659234 68.79871531 445.82203895 68.77110834 C468.53572354 68.74197633 491.24939337 68.72400539 513.96309602 68.71773452 C527.56430728 68.71362056 541.16545037 68.70063218 554.76664065 68.6762506 C564.09661392 68.66037875 573.42655202 68.65560294 582.75653781 68.65949587 C588.13742696 68.66141514 593.51819709 68.65849662 598.89906502 68.64238358 C603.8318545 68.62772062 608.76444559 68.62708899 613.69724445 68.63730332 C615.4754131 68.63856464 617.25359444 68.63481354 619.03173836 68.62535045 C638.57473485 68.52744935 656.1784709 71.63519626 670.86572266 85.53588867 C682.11688516 96.89204166 687.2967133 110.7467945 687.5 126.5625 C687.32668891 142.44724941 681.33957687 156.21662832 670.40625 167.71484375 C657.1397935 180.31367014 640.73176409 184.39699234 622.8182953 184.02634666 C620.45461624 183.96510667 618.09140098 183.89289711 615.72802734 183.82089233 C613.99662309 183.77713096 612.26518852 183.73455596 610.5337286 183.69305575 C606.78585349 183.60150953 603.03822353 183.50354625 599.29064369 183.40062523 C589.95697041 183.14556504 580.62235744 182.92913577 571.28773892 182.71192864 C569.06561565 182.66020233 566.84350075 182.60811577 564.62139404 182.55568311 C547.10205732 182.14374748 529.58283221 181.83193706 512.06030273 181.59341431 C510.86984876 181.5771499 509.67939478 181.56088549 508.45286644 181.54412822 C496.1392564 181.37730259 483.82551863 181.22270126 471.51163954 181.07717469 C465.1882246 181.0018749 458.86485406 180.92332157 452.54150391 180.84277344 C451.2831533 180.82679594 450.02480269 180.81081844 448.72832024 180.79435678 C428.47979751 180.5302574 408.24366547 180.03119458 388.002244 179.44368629 C367.11025007 178.84292864 346.22554552 178.51163473 325.32511139 178.41429007 C313.62825906 178.35233652 301.95935311 178.17572706 290.27191162 177.68629074 C234.40128998 174.43425979 234.40128998 174.43425979 186.05473673 198.35885714 C175.68065544 207.92542469 166.29190424 218.1644922 157.45143127 229.15575218 C154.96955165 232.22829783 152.48292444 235.29692202 149.99389648 238.36367798 C149.40729268 239.09527724 148.82068887 239.82687649 148.21630919 240.58064543 C142.35028898 247.78199409 137.64975584 253.51920546 128.18435669 255.09516525 C121.6049334 255.42186351 115.3609986 254.6849953 109 253 C108.7933156 250.98069609 108.58862133 248.96118842 108.38476562 246.94159698 C108.27056274 245.81700593 108.15635986 244.69241487 108.03869629 243.53374529 C107.22642608 234.60239936 107.27875982 226.44531075 112.75 218.93945312 C117.7063518 213.20955641 123.30944203 208.2321026 129 203.25 C130.93343916 201.45735155 132.86059076 199.65789678 134.78125 197.8515625 C139.4513406 193.48668982 144.19161354 189.2117832 149 185 C142.12866455 184.39264638 142.12866455 184.39264638 135.92456055 186.95605469 C135.08707275 187.85227539 134.24958496 188.74849609 133.38671875 189.671875 C132.9244136 190.15070129 132.46210846 190.62952759 131.98579407 191.12286377 C130.52745308 192.64321154 129.10772117 194.19407042 127.6875 195.75 C126.24209274 197.28313219 124.7895293 198.80919623 123.33564758 200.33428955 C122.02151142 201.72061129 120.72445233 203.12306275 119.4284668 204.52636719 C118.62707275 205.34266602 117.82567871 206.15896484 117 207 C116.02300644 208.05247925 116.02300644 208.05247925 115.02627563 209.1262207 C110.4973895 211.93037145 106.37703053 211.52703475 101.15112305 211.45410156 C100.04035558 211.4545837 98.92958811 211.45506584 97.78516102 211.45556259 C94.19368637 211.45257971 90.60304463 211.42213145 87.01171875 211.390625 C84.79285074 211.38474304 82.5739772 211.38066283 80.35510254 211.37841797 C72.13248366 211.35745599 63.90998363 211.30161104 55.6875 211.25 C37.310625 211.1675 18.93375 211.085 0 211 C0 141.37 0 71.74 0 0 Z M28 39 C28 41.64 28 44.28 28 47 C72.22 47 116.44 47 162 47 C162 44.36 162 41.72 162 39 C117.78 39 73.56 39 28 39 Z M28 80 C28 82.97 28 85.94 28 89 C35.56189726 89.1778355 43.12325334 89.30022017 50.68676758 89.38452148 C53.25826163 89.41967199 55.8296163 89.46740269 58.40063477 89.52807617 C62.10207531 89.61322433 65.80166331 89.65274499 69.50390625 89.68359375 C71.22148888 89.73778725 71.22148888 89.73778725 72.97377014 89.79307556 C78.58554076 89.79582131 82.05908481 89.65071309 86.15600586 85.58227539 C87.12847932 84.40803058 88.08048593 83.21616175 89 82 C89.66 81.34 90.32 80.68 91 80 C70.21 80 49.42 80 28 80 Z M28 122 C28 124.97 28 127.94 28 131 C41.2 131 54.4 131 68 131 C68 128.03 68 125.06 68 122 C54.8 122 41.6 122 28 122 Z M28 164 C28 166.97 28 169.94 28 173 C48.79 173 69.58 173 91 173 C88.525 170.525 88.525 170.525 86 168 C85.34847961 167.24624084 84.69695923 166.49248169 84.0256958 165.71588135 C81.40891301 163.49931518 79.98632798 163.51414647 76.58886719 163.54589844 C74.96763947 163.54635162 74.96763947 163.54635162 73.31365967 163.54681396 C71.57285126 163.57778168 71.57285126 163.57778168 69.796875 163.609375 C68.60394836 163.61503479 67.41102173 163.62069458 66.1819458 163.62652588 C62.37088944 163.64892074 58.56077233 163.69912571 54.75 163.75 C52.16668024 163.77006085 49.58334575 163.78831234 47 163.8046875 C40.66634606 163.84879589 34.33324013 163.91574022 28 164 Z " fill="#0F172A" transform="translate(7,7)"/>
<path d="M0 0 C62.7 0 125.4 0 190 0 C190 22.77 190 45.54 190 69 C188.09792133 70.90207867 184.71337474 70.13506605 182.19213867 70.1418457 C181.12355621 70.14705734 181.12355621 70.14705734 180.03338623 70.15237427 C178.47938511 70.15974711 176.92537335 70.16508431 175.37135887 70.16866493 C172.90213389 70.17582718 170.43310803 70.19149726 167.96394348 70.21000671 C160.94059183 70.2624484 153.91734148 70.31033358 146.89379883 70.32592773 C142.60005067 70.33608649 138.30679237 70.36562141 134.01323891 70.40724754 C132.3848271 70.41946504 130.75634572 70.42469593 129.12788963 70.42244911 C117.63476171 70.41050826 107.59400847 71.32284534 97.69360352 77.71948242 C91.55175013 81.31228646 84.80406279 80.62042991 77.90234375 80.48828125 C76.45790337 80.47893772 75.01344698 80.4718289 73.56898499 80.46684265 C69.79569551 80.44789323 66.02339224 80.39890089 62.25048828 80.34332275 C58.38913305 80.29186655 54.52761603 80.26927281 50.66601562 80.24414062 C43.11023099 80.19076668 35.55525449 80.10560526 28 80 C28 82.97 28 85.94 28 89 C45.49 89 62.98 89 81 89 C79.75275667 91.49448665 78.47737721 93.97534061 77.16015625 96.43359375 C76.46054067 97.76802119 75.76133394 99.10266305 75.0625 100.4375 C74.71509766 101.07365234 74.36769531 101.70980469 74.00976562 102.36523438 C70.57147678 109.01518286 69.81451839 114.13708699 68 122 C54.8 122 41.6 122 28 122 C28 124.97 28 127.94 28 131 C41.2 131 54.4 131 68 131 C69.65 136.94 71.3 142.88 73 149 C75.64723979 153.93219616 75.64723979 153.93219616 78.546875 158.71484375 C80 161 80 161 81 164 C63.51 164 46.02 164 28 164 C28 166.97 28 169.94 28 173 C28.7684877 172.98445572 29.5369754 172.96891144 30.32875061 172.95289612 C37.63789022 172.81153896 44.94634997 172.70551566 52.25650883 172.6373148 C56.01316073 172.60107015 59.76866604 172.55206679 63.5246582 172.47192383 C93.72085317 171.8442023 93.72085317 171.8442023 104.09545898 178.28881836 C109.37640705 181.40003674 114.95084541 182.21578844 121.03125 182.4140625 C122.61679688 182.47207031 122.61679688 182.47207031 124.234375 182.53125 C125.31203125 182.5621875 126.3896875 182.593125 127.5 182.625 C129.16289062 182.68300781 129.16289062 182.68300781 130.859375 182.7421875 C133.57275797 182.83575243 136.28614661 182.92149483 139 183 C137.47829846 186.58939226 135.35696028 188.88771871 132.60546875 191.625 C131.73212891 192.49640625 130.85878906 193.3678125 129.95898438 194.265625 C129.04439453 195.16796875 128.12980469 196.0703125 127.1875 197 C125.83301758 198.35351562 125.83301758 198.35351562 124.45117188 199.734375 C119.49436418 204.6584044 119.49436418 204.6584044 117 207 C116.34983917 207.69655701 115.69967834 208.39311401 115.02981567 209.11077881 C110.50048502 211.93501248 106.38671167 211.52716986 101.15112305 211.45410156 C100.04035558 211.4545837 98.92958811 211.45506584 97.78516102 211.45556259 C94.19368637 211.45257971 90.60304463 211.42213145 87.01171875 211.390625 C84.79285074 211.38474304 82.5739772 211.38066283 80.35510254 211.37841797 C72.13248366 211.35745599 63.90998363 211.30161104 55.6875 211.25 C37.310625 211.1675 18.93375 211.085 0 211 C0 141.37 0 71.74 0 0 Z M28 39 C28 41.64 28 44.28 28 47 C72.22 47 116.44 47 162 47 C162 44.36 162 41.72 162 39 C117.78 39 73.56 39 28 39 Z " fill="#FEFEFE" transform="translate(7,7)"/>
<path d="M0 0 C-1.68507651 4.23433017 -4.78452303 7.24931847 -7.85717773 10.51269531 C-8.45783554 11.15701508 -9.05849335 11.80133484 -9.67735291 12.46517944 C-15.24915621 18.41817503 -20.90314771 24.29307875 -26.58132839 30.14451981 C-30.3863439 34.06752077 -34.16128324 38.01155417 -37.87475586 42.02148438 C-65.23977712 71.51753587 -65.23977712 71.51753587 -80.01808167 72.22967529 C-85.15086318 71.97205455 -90.03538211 71.33685585 -95 70 C-96.66883146 56.86454095 -97.76534408 44.16650351 -89.91119385 32.86697388 C-86.0102364 28.0002299 -81.78230224 23.59404549 -77.3125 19.25 C-76.40348938 18.32552063 -75.49447876 17.40104126 -74.55792236 16.44854736 C-52.70333818 -5.28448794 -28.9754814 -4.73508379 0 0 Z " fill="#FEFEFE" transform="translate(211,190)"/>
<path d="M0 0 C4.08192613 2.3875417 6.85511349 4.87509582 9.3125 8.9375 C10.09547281 12.16695687 10.06739407 15.19289693 9.9375 18.5 C9.94716797 19.7365332 9.94716797 19.7365332 9.95703125 20.99804688 C9.86160398 26.42438852 8.91070841 29.65890309 5.3125 33.9375 C-2.68343932 40.10103656 -11.96056877 39.84615246 -21.6875 38.9375 C-27.05394269 37.53689652 -30.73815331 34.65645471 -33.6875 29.9375 C-34.966339 26.21255955 -34.89068695 22.47138979 -34.9375 18.5625 C-34.96328125 17.27601563 -34.9890625 15.98953125 -35.015625 14.6640625 C-34.56142649 9.50566511 -33.0642013 6.24174333 -29.3125 2.6875 C-21.41669474 -2.57637017 -9.06326689 -2.85651602 0 0 Z " fill="#F5F5F6" transform="translate(433.6875,118.0625)"/>
<path d="M0 0 C4.08192613 2.3875417 6.85511349 4.87509582 9.3125 8.9375 C10.09547281 12.16695687 10.06739407 15.19289693 9.9375 18.5 C9.94716797 19.7365332 9.94716797 19.7365332 9.95703125 20.99804688 C9.86160398 26.42438852 8.91070841 29.65890309 5.3125 33.9375 C-2.68343932 40.10103656 -11.96056877 39.84615246 -21.6875 38.9375 C-27.05394269 37.53689652 -30.73815331 34.65645471 -33.6875 29.9375 C-34.966339 26.21255955 -34.89068695 22.47138979 -34.9375 18.5625 C-34.96328125 17.27601563 -34.9890625 15.98953125 -35.015625 14.6640625 C-34.56142649 9.50566511 -33.0642013 6.24174333 -29.3125 2.6875 C-21.41669474 -2.57637017 -9.06326689 -2.85651602 0 0 Z " fill="#F5F5F6" transform="translate(190.6875,118.0625)"/>
<path d="M0 0 C1.06347656 -0.020625 2.12695312 -0.04125 3.22265625 -0.0625 C10.18591358 -0.09710004 15.7171026 0.0651143 21.03515625 5.03515625 C22.50170909 8.01557008 22.55867021 10.37473152 22.5625 13.6875 C22.58183594 14.79996094 22.60117187 15.91242188 22.62109375 17.05859375 C22.028604 20.87012231 20.83368444 22.55140377 18.125 25.25 C17.465 25.25 16.805 25.25 16.125 25.25 C16.6303125 26.00925781 17.135625 26.76851562 17.65625 27.55078125 C18.3059375 28.54464844 18.955625 29.53851563 19.625 30.5625 C20.59953125 32.04169922 20.59953125 32.04169922 21.59375 33.55078125 C23.125 36.25 23.125 36.25 23.125 39.25 C19.27127039 39.93990819 15.94474619 40.21662965 12.125 39.25 C10.01446866 36.57174874 8.60871523 33.78144347 7.02734375 30.765625 C5.31977073 28.01346249 5.31977073 28.01346249 2.25390625 27.296875 C-1.14216579 26.97918239 -1.14216579 26.97918239 -5.875 27.25 C-5.875 31.21 -5.875 35.17 -5.875 39.25 C-9.505 39.25 -13.135 39.25 -16.875 39.25 C-16.875 26.71 -16.875 14.17 -16.875 1.25 C-11.15238436 0.10547687 -5.81473202 0.02798908 0 0 Z " fill="#F5F5F6" transform="translate(285.875,116.75)"/>
<path d="M0 0 C11 0 11 0 13.7265625 1.765625 C14.35304688 2.58546875 14.97953125 3.4053125 15.625 4.25 C16.69427734 5.59964844 16.69427734 5.59964844 17.78515625 6.9765625 C18.51605469 7.97429687 19.24695313 8.97203125 20 10 C20.85059812 11.11371383 21.70351764 12.22565802 22.55859375 13.3359375 C24.75380883 16.19270536 26.86874486 19.09066759 29 22 C29.33 14.74 29.66 7.48 30 0 C33.63 0 37.26 0 41 0 C41 12.54 41 25.08 41 38 C29 38 29 38 25.6328125 35.21875 C24.75686442 34.00710925 23.92065579 32.76581603 23.125 31.5 C22.70476562 30.89929688 22.28453125 30.29859375 21.8515625 29.6796875 C20.54245465 27.80383174 19.27154409 25.90151882 18 24 C16.02 21.36 14.04 18.72 12 16 C11.67 23.26 11.34 30.52 11 38 C7.37 38 3.74 38 0 38 C0 25.46 0 12.92 0 0 Z " fill="#F4F4F5" transform="translate(344,118)"/>
<path d="M0 0 C12.21 0 24.42 0 37 0 C37 2.97 37 5.94 37 9 C28.42 9 19.84 9 11 9 C11 10.98 11 12.96 11 15 C17.6 15 24.2 15 31 15 C31 17.97 31 20.94 31 24 C24.4 24 17.8 24 11 24 C11 25.65 11 27.3 11 29 C19.58 29 28.16 29 37 29 C37 31.97 37 34.94 37 38 C24.79 38 12.58 38 0 38 C0 25.46 0 12.92 0 0 Z " fill="#F8F8F8" transform="translate(508,118)"/>
<path d="M0 0 C0.88107422 -0.00773437 1.76214844 -0.01546875 2.66992188 -0.0234375 C7.53284381 -0.00886695 11.50017521 0.35592118 16.0625 2.25 C16.0625 5.22 16.0625 8.19 16.0625 11.25 C15.38445313 11.1778125 14.70640625 11.105625 14.0078125 11.03125 C2.92404297 9.63408393 2.92404297 9.63408393 -7.9375 11.25 C-7.6075 12.57 -7.2775 13.89 -6.9375 15.25 C-5.92429687 15.28738281 -4.91109375 15.32476562 -3.8671875 15.36328125 C-2.51559061 15.42898388 -1.16402971 15.49542971 0.1875 15.5625 C0.85265625 15.58505859 1.5178125 15.60761719 2.203125 15.63085938 C7.92552832 15.93942034 11.82054162 17.65702958 16.4375 20.9375 C18.38398657 23.70750011 18.6354541 25.86124678 18.44140625 29.22265625 C17.79294362 32.69226558 16.41354907 34.65781769 14.0625 37.25 C8.0350381 40.61805335 2.7418671 40.64496654 -4.0625 40.5 C-5.52623047 40.49226563 -5.52623047 40.49226563 -7.01953125 40.484375 C-11.47538708 40.43574356 -15.57521989 40.22329657 -19.9375 39.25 C-19.9375 35.95 -19.9375 32.65 -19.9375 29.25 C-17.6171875 29.4975 -17.6171875 29.4975 -15.25 29.75 C-4.33868366 31.23589052 -4.33868366 31.23589052 6.0625 29.25 C6.3925 28.26 6.7225 27.27 7.0625 26.25 C5.90492188 26.21261719 4.74734375 26.17523438 3.5546875 26.13671875 C2.01559439 26.07102575 0.4765333 26.00457958 -1.0625 25.9375 C-1.82304688 25.91494141 -2.58359375 25.89238281 -3.3671875 25.86914062 C-9.41404233 25.5824363 -13.69262413 24.25857315 -18.3125 20.125 C-20.58409315 16.1060275 -20.85910236 12.76267361 -19.9375 8.25 C-18.27619635 5.03633064 -16.07069755 2.88122981 -12.8828125 1.10546875 C-8.58327993 -0.14333448 -4.45342761 -0.03892289 0 0 Z " fill="#F4F5F5" transform="translate(577.9375,116.75)"/>
<path d="M0 0 C3.63 0 7.26 0 11 0 C11.33 9.24 11.66 18.48 12 28 C15.1675983 28.79189958 17.32744777 29.1358649 20.5 29.125 C21.2528125 29.12757813 22.005625 29.13015625 22.78125 29.1328125 C25.32656368 29.04878742 25.32656368 29.04878742 29 28 C29.33 18.76 29.66 9.52 30 0 C33.63 0 37.26 0 41 0 C41.11668418 4.52061442 41.18741645 9.04083847 41.25 13.5625 C41.28351563 14.83931641 41.31703125 16.11613281 41.3515625 17.43164062 C41.42483389 24.4840122 41.46631499 29.37515965 37 35 C31.9760334 39.18587276 26.67918714 39.36808992 20.375 39.4375 C19.64643799 39.44773193 18.91787598 39.45796387 18.16723633 39.46850586 C12.71955154 39.37978943 8.47235425 38.30792214 4.35546875 34.46484375 C0.71578927 29.70526289 -0.12456672 27.65381292 -0.09765625 21.6796875 C-0.09443359 20.42285156 -0.09121094 19.16601562 -0.08789062 17.87109375 C-0.07951172 16.55238281 -0.07113281 15.23367187 -0.0625 13.875 C-0.05748489 12.53515789 -0.05292201 11.195314 -0.04882812 9.85546875 C-0.03701086 6.57026794 -0.02053617 3.28515603 0 0 Z " fill="#F4F4F5" transform="translate(214,118)"/>
<path d="M0 0 C13.2 0 26.4 0 40 0 C40 2.97 40 5.94 40 9 C35.38 9 30.76 9 26 9 C26 18.57 26 28.14 26 38 C22.37 38 18.74 38 15 38 C15 28.43 15 18.86 15 9 C10.05 9 5.1 9 0 9 C0 6.03 0 3.06 0 0 Z " fill="#F6F7F7" transform="translate(455,118)"/>
<path d="M0 0 C3.8306743 -0.62343705 7.19336076 -0.8493308 11 0 C15.15732193 3.90846816 17.52307504 8.92763693 20 14 C20.52207031 12.989375 21.04414062 11.97875 21.58203125 10.9375 C27.3552496 0.50185974 27.3552496 0.50185974 32.046875 -0.9296875 C34.81761482 -0.87944092 37.3054155 -0.63461243 40 0 C39.45660477 3.69269023 38.59609061 5.95779014 36.3125 8.8984375 C29.04045146 18.70495075 25.04585253 25.55938496 26 38 C22.37 38 18.74 38 15 38 C15.11794922 36.70642578 15.11794922 36.70642578 15.23828125 35.38671875 C15.48768567 22.95587716 9.78115546 15.50968052 2.29101562 5.96020508 C0.96715968 3.95013711 0.42823173 2.35231895 0 0 Z " fill="#F4F4F5" transform="translate(106,118)"/>
<path d="M0 0 C2.5625 1.125 2.5625 1.125 4.5625 3.125 C4.86328125 6.27734375 4.86328125 6.27734375 4.875 10.0625 C4.89175781 11.30902344 4.90851563 12.55554688 4.92578125 13.83984375 C4.5625 17.125 4.5625 17.125 3.23046875 19.00390625 C-0.92261114 21.7953206 -5.63153564 21.60805264 -10.4375 21.125 C-15.52840909 19.03409091 -15.52840909 19.03409091 -17.4375 17.125 C-17.64261024 14.85999695 -17.75162476 12.58595623 -17.8125 10.3125 C-17.86148437 9.06855469 -17.91046875 7.82460937 -17.9609375 6.54296875 C-17.4375 3.125 -17.4375 3.125 -15.19140625 0.69921875 C-10.17829862 -2.16643001 -5.44596627 -1.38624596 0 0 Z " fill="#141C2F" transform="translate(427.4375,126.875)"/>
<path d="M0 0 C2.5625 1.125 2.5625 1.125 4.5625 3.125 C4.86328125 6.27734375 4.86328125 6.27734375 4.875 10.0625 C4.89175781 11.30902344 4.90851563 12.55554688 4.92578125 13.83984375 C4.5625 17.125 4.5625 17.125 3.23046875 19.00390625 C-0.92261114 21.7953206 -5.63153564 21.60805264 -10.4375 21.125 C-15.52840909 19.03409091 -15.52840909 19.03409091 -17.4375 17.125 C-17.64261024 14.85999695 -17.75162476 12.58595623 -17.8125 10.3125 C-17.86148438 9.06855469 -17.91046875 7.82460937 -17.9609375 6.54296875 C-17.4375 3.125 -17.4375 3.125 -15.19140625 0.69921875 C-10.17829862 -2.16643001 -5.44596627 -1.38624596 0 0 Z " fill="#141C2F" transform="translate(184.4375,126.875)"/>
<path d="M0 0 C2.45840605 -0.02691685 4.91651882 -0.04679802 7.375 -0.0625 C8.07367188 -0.07087891 8.77234375 -0.07925781 9.4921875 -0.08789062 C14.7734375 -0.11328125 14.7734375 -0.11328125 17 1 C17.1875 3.875 17.1875 3.875 17 7 C13.51079626 9.32613583 12.05047454 9.24247293 7.9375 9.1875 C6.34228516 9.17783203 6.34228516 9.17783203 4.71484375 9.16796875 C2 9 2 9 0 8 C0 5.36 0 2.72 0 0 Z " fill="#1E2537" transform="translate(280,126)"/>
</svg>
