<?xml version="1.0" encoding="UTF-8"?>
<svg version="1.1" xmlns="http://www.w3.org/2000/svg" width="655" height="162">
<path d="M0 0 C37.62 0 75.24 0 114 0 C114.45375 10.27125 114.9075 20.5425 115.375 31.125 C115.57528809 34.31816895 115.77557617 37.51133789 115.98193359 40.80126953 C116.43914636 53.65461789 116.53953874 63.75949486 107.54031563 73.63326073 C102.75402729 78.54698543 97.50659877 82.91503425 92 87 C93.2684375 88.36125 93.2684375 88.36125 94.5625 89.75 C96.98983025 92.70719901 96.98983025 92.70719901 97.06787109 94.95410156 C90.47176252 107.5913649 80.61560337 120.65143111 67 126 C45.41837154 130.65135978 21.29409618 127.2180055 0 126 C0 84.42 0 42.84 0 0 Z M17 23 C17 24.65 17 26.3 17 28 C43.07 28 69.14 28 96 28 C96 26.35 96 24.7 96 23 C69.93 23 43.86 23 17 23 Z M17 48 C17 49.32 17 50.64 17 52 C43.07 52 69.14 52 96 52 C96 50.68 96 49.36 96 48 C69.93 48 43.86 48 17 48 Z M17 73 C17 74.32 17 75.64 17 77 C43.07 77 69.14 77 96 77 C96 75.68 96 74.36 96 73 C69.93 73 43.86 73 17 73 Z M17 98 C17 99.32 17 100.64 17 102 C38.12 102 59.24 102 81 102 C81 100.68 81 99.36 81 98 C59.88 98 38.76 98 17 98 Z " fill="#A3E535" transform="translate(3,7)"/>
<path d="M0 0 C4.40616929 2.1267934 7.35554337 4.95197207 10.8125 8.375 C11.42287109 8.9525 12.03324219 9.53 12.66210938 10.125 C13.5196582 10.97191406 13.5196582 10.97191406 14.39453125 11.8359375 C14.91893799 12.34688965 15.44334473 12.8578418 15.98364258 13.38427734 C17 15 17 15 16.84277344 16.99731445 C15.89308164 19.25407048 14.86417936 20.49466081 13.12109375 22.20703125 C12.52876953 22.79419922 11.93644531 23.38136719 11.32617188 23.98632812 C10.70291016 24.58896484 10.07964844 25.19160156 9.4375 25.8125 C8.84130859 26.40353516 8.24511719 26.99457031 7.63085938 27.60351562 C4.63878247 30.54428145 1.59582149 33.35448456 -1.62109375 36.046875 C-5.48851812 39.38218367 -8.89111138 43.0573422 -12.34375 46.80859375 C-14.1218374 48.70572005 -15.90390395 50.5990192 -17.6875 52.4909668 C-18.89550185 53.7882996 -20.08965593 55.09866635 -21.26953125 56.42163086 C-31.68661344 68.05278818 -31.68661344 68.05278818 -38.47265625 68.84423828 C-42.38859298 68.97999637 -46.13543227 68.61622312 -50 68 C-51.43579225 65.1284155 -51.36290848 62.57608695 -51.5 59.375 C-51.5721875 58.18648437 -51.644375 56.99796875 -51.71875 55.7734375 C-50.02966852 46.90575973 -39.87624646 39.74412931 -33.69140625 33.59375 C-32.7146999 32.61891355 -31.73821766 31.64385251 -30.76194763 30.6685791 C-28.21772539 28.12813699 -25.67051264 25.59071491 -23.12261963 23.05395508 C-20.51284118 20.45448873 -17.90596518 17.85211506 -15.29882812 15.25 C-10.20202128 10.16385082 -5.10204492 5.0808953 0 0 Z " fill="#A1E634" transform="translate(118,90)"/>
<path d="M0 0 C0.92876953 -0.01611328 1.85753906 -0.03222656 2.81445312 -0.04882812 C8.93503474 -0.05318441 13.49474511 0.51435777 18.20703125 4.8125 C22.34004015 10.12044454 22.76797271 14.07392175 22.8125 20.625 C22.833125 21.37201172 22.85375 22.11902344 22.875 22.88867188 C22.91434783 28.49081977 21.97414605 32.6684818 18.0625 36.95703125 C12.11620887 41.58708607 7.62650579 41.55044716 0.375 41.625 C-1.00655273 41.66850586 -1.00655273 41.66850586 -2.41601562 41.71289062 C-8.56462723 41.76962019 -13.36555596 40.96205099 -18.4375 37.3125 C-24.19610302 30.22498859 -24.01845613 23.15359609 -23.4375 14.3125 C-22.58686964 10.04595243 -21.18836188 7.06336188 -18.0625 3.9375 C-12.00605074 0.18826951 -6.98562526 -0.0241383 0 0 Z M-8.4375 12.3125 C-11.41128411 16.77317616 -11.04893332 21.08396123 -10.4375 26.3125 C-9.14308862 29.10754081 -9.14308862 29.10754081 -6.4375 30.3125 C-0.3546063 31.80829353 3.14176134 31.45652843 8.5625 28.3125 C11.25496541 25.03471602 10.92142176 21.40420806 10.5625 17.3125 C9.80550635 14.38413629 9.80550635 14.38413629 7.5625 12.3125 C1.96837382 9.96765669 -2.80491424 9.89853468 -8.4375 12.3125 Z " fill="#FFFFFF" transform="translate(474.4375,59.6875)"/>
<path d="M0 0 C13 0 13 0 17.3125 3.875 C18.5705216 5.56219742 19.79837194 7.27218534 21 9 C22.49080139 10.86157064 23.99062733 12.71595507 25.5 14.5625 C26.655 16.026875 27.81 17.49125 29 19 C29.33 12.73 29.66 6.46 30 0 C33.96 0 37.92 0 42 0 C42 12.87 42 25.74 42 39 C29 39 29 39 24.95703125 35.60546875 C23.86681637 34.1636563 22.81844768 32.68931919 21.8125 31.1875 C21.26787109 30.44951172 20.72324219 29.71152344 20.16210938 28.95117188 C18.01889793 26.02379406 16.01235619 23.01853428 14 20 C13.67 26.27 13.34 32.54 13 39 C8.71 39 4.42 39 0 39 C0 26.13 0 13.26 0 0 Z " fill="#FFFFFF" transform="translate(396,61)"/>
<path d="M0 0 C1.00353516 0.00193359 2.00707031 0.00386719 3.04101562 0.00585938 C4.07806641 0.01810547 5.11511719 0.03035156 6.18359375 0.04296875 C7.22451172 0.04361328 8.26542969 0.04425781 9.33789062 0.04492188 C13.69844932 0.07015984 17.36350679 0.16607201 21.62109375 1.23046875 C21.62109375 4.86046875 21.62109375 8.49046875 21.62109375 12.23046875 C20.30753906 12.13507813 18.99398437 12.0396875 17.640625 11.94140625 C15.90498691 11.82882432 14.16930747 11.71687853 12.43359375 11.60546875 C11.56927734 11.54101562 10.70496094 11.4765625 9.81445312 11.41015625 C5.2444721 11.13000416 1.77486775 10.97728285 -2.37890625 13.23046875 C-2.37890625 13.56046875 -2.37890625 13.89046875 -2.37890625 14.23046875 C-1.22132813 14.34003906 -0.06375 14.44960937 1.12890625 14.5625 C2.66803238 14.72204356 4.20709154 14.88223414 5.74609375 15.04296875 C6.88691406 15.14834961 6.88691406 15.14834961 8.05078125 15.25585938 C13.7009138 15.86470987 18.33410441 16.90970531 22.47265625 21.109375 C24.56638313 24.97636036 24.11308776 28.96190099 23.62109375 33.23046875 C22.27657724 36.94766146 21.19482736 37.90842754 17.75390625 39.83984375 C12.528323 41.97994748 7.11689648 41.62754426 1.55859375 41.54296875 C-0.0356543 41.54780273 -0.0356543 41.54780273 -1.66210938 41.55273438 C-6.93733439 41.51648986 -11.45855411 41.37086457 -16.37890625 39.23046875 C-16.37890625 35.60046875 -16.37890625 31.97046875 -16.37890625 28.23046875 C-14.06632813 28.46443359 -14.06632813 28.46443359 -11.70703125 28.703125 C-9.68102439 28.90009789 -7.65498075 29.09669278 -5.62890625 29.29296875 C-4.613125 29.39673828 -3.59734375 29.50050781 -2.55078125 29.60742188 C-1.08125 29.74760742 -1.08125 29.74760742 0.41796875 29.890625 C1.31870117 29.97965088 2.21943359 30.06867676 3.14746094 30.16040039 C5.57070829 30.22904153 7.35271137 30.07425854 9.62109375 29.23046875 C9.95109375 28.57046875 10.28109375 27.91046875 10.62109375 27.23046875 C9.01041016 27.17439453 9.01041016 27.17439453 7.3671875 27.1171875 C5.93095755 27.05147763 4.49476113 26.98503207 3.05859375 26.91796875 C2.35412109 26.89541016 1.64964844 26.87285156 0.92382812 26.84960938 C-4.90197542 26.55429214 -9.90570558 25.58710463 -14.28515625 21.4140625 C-16.51158753 16.96915147 -16.08390522 12.04686357 -15.37890625 7.23046875 C-11.49629766 1.68388505 -6.60110692 -0.0297426 0 0 Z " fill="#FFFFFF" transform="translate(624.37890625,59.76953125)"/>
<path d="M0 0 C1.00353516 0.00193359 2.00707031 0.00386719 3.04101562 0.00585938 C4.07806641 0.01810547 5.11511719 0.03035156 6.18359375 0.04296875 C7.22451172 0.04361328 8.26542969 0.04425781 9.33789062 0.04492188 C13.69844932 0.07015984 17.36350679 0.16607201 21.62109375 1.23046875 C21.62109375 4.86046875 21.62109375 8.49046875 21.62109375 12.23046875 C20.30753906 12.13507813 18.99398437 12.0396875 17.640625 11.94140625 C15.90498691 11.82882432 14.16930747 11.71687853 12.43359375 11.60546875 C11.56927734 11.54101562 10.70496094 11.4765625 9.81445312 11.41015625 C5.2444721 11.13000416 1.77486775 10.97728285 -2.37890625 13.23046875 C-2.37890625 13.56046875 -2.37890625 13.89046875 -2.37890625 14.23046875 C-1.22132813 14.34003906 -0.06375 14.44960937 1.12890625 14.5625 C2.66803238 14.72204356 4.20709154 14.88223414 5.74609375 15.04296875 C6.88691406 15.14834961 6.88691406 15.14834961 8.05078125 15.25585938 C13.7009138 15.86470987 18.33410441 16.90970531 22.47265625 21.109375 C24.56638313 24.97636036 24.11308776 28.96190099 23.62109375 33.23046875 C22.27657724 36.94766146 21.19482736 37.90842754 17.75390625 39.83984375 C12.528323 41.97994748 7.11689648 41.62754426 1.55859375 41.54296875 C-0.0356543 41.54780273 -0.0356543 41.54780273 -1.66210938 41.55273438 C-6.93733439 41.51648986 -11.45855411 41.37086457 -16.37890625 39.23046875 C-16.37890625 35.60046875 -16.37890625 31.97046875 -16.37890625 28.23046875 C-14.06632812 28.46443359 -14.06632812 28.46443359 -11.70703125 28.703125 C-9.68102439 28.90009789 -7.65498075 29.09669278 -5.62890625 29.29296875 C-4.613125 29.39673828 -3.59734375 29.50050781 -2.55078125 29.60742188 C-1.08125 29.74760742 -1.08125 29.74760742 0.41796875 29.890625 C1.31870117 29.97965088 2.21943359 30.06867676 3.14746094 30.16040039 C5.57070829 30.22904153 7.35271137 30.07425854 9.62109375 29.23046875 C9.95109375 28.57046875 10.28109375 27.91046875 10.62109375 27.23046875 C9.01041016 27.17439453 9.01041016 27.17439453 7.3671875 27.1171875 C5.93095755 27.05147763 4.49476113 26.98503207 3.05859375 26.91796875 C2.35412109 26.89541016 1.64964844 26.87285156 0.92382812 26.84960938 C-4.90197542 26.55429214 -9.90570558 25.58710463 -14.28515625 21.4140625 C-16.51158753 16.96915147 -16.08390522 12.04686357 -15.37890625 7.23046875 C-11.49629766 1.68388505 -6.60110692 -0.0297426 0 0 Z " fill="#FFFFFF" transform="translate(338.37890625,59.76953125)"/>
<path d="M0 0 C1.03189453 0.00515625 2.06378906 0.0103125 3.12695312 0.015625 C7.44839161 0.06049393 11.0937378 0.19530945 15.3125 1.25 C15.3125 4.88 15.3125 8.51 15.3125 12.25 C13.32476562 12.12431641 13.32476562 12.12431641 11.296875 11.99609375 C9.55210228 11.89290827 7.80730952 11.79006137 6.0625 11.6875 C5.18980469 11.63142578 4.31710938 11.57535156 3.41796875 11.51757812 C2.57363281 11.46923828 1.72929687 11.42089844 0.859375 11.37109375 C0.08432617 11.3239624 -0.69072266 11.27683105 -1.48925781 11.22827148 C-3.71862585 11.25030766 -5.55648567 11.6196103 -7.6875 12.25 C-7.6875 12.91 -7.6875 13.57 -7.6875 14.25 C-6.05941406 14.41435547 -6.05941406 14.41435547 -4.3984375 14.58203125 C-2.95305848 14.74158608 -1.50774949 14.90177611 -0.0625 15.0625 C0.65035156 15.13275391 1.36320312 15.20300781 2.09765625 15.27539062 C7.5901235 15.90526072 12.11629339 17.04914041 16.15625 21.09765625 C18.37866303 25.23464807 18.04026934 29.70818022 17.3125 34.25 C14.77709795 37.7009639 12.23840551 39.64372825 8.3125 41.25 C5.64282227 41.49291992 5.64282227 41.49291992 2.62890625 41.48046875 C1.53642578 41.47853516 0.44394531 41.47660156 -0.68164062 41.47460938 C-1.81794922 41.46236328 -2.95425781 41.45011719 -4.125 41.4375 C-5.82366211 41.4365332 -5.82366211 41.4365332 -7.55664062 41.43554688 C-12.50119237 41.40932356 -16.80759105 41.22598179 -21.6875 40.25 C-21.6875 36.29 -21.6875 32.33 -21.6875 28.25 C-19.50060547 28.48396484 -19.50060547 28.48396484 -17.26953125 28.72265625 C-15.34639405 28.91966055 -13.42321469 29.1162536 -11.5 29.3125 C-10.54029297 29.41626953 -9.58058594 29.52003906 -8.59179688 29.62695312 C-7.19477539 29.76713867 -7.19477539 29.76713867 -5.76953125 29.91015625 C-4.91593018 29.99918213 -4.0623291 30.08820801 -3.18286133 30.17993164 C-0.53052269 30.25440784 1.7387253 29.86472301 4.3125 29.25 C4.3125 28.92 4.3125 28.59 4.3125 28.25 C2.71921875 28.10304688 2.71921875 28.10304688 1.09375 27.953125 C-13.26519191 26.48872334 -13.26519191 26.48872334 -19.6875 22.25 C-22.66956528 17.77690208 -22.16411546 13.49277005 -21.6875 8.25 C-20.34778239 4.46726792 -19.29248988 3.58683221 -15.796875 1.640625 C-10.68225145 -0.46107566 -5.44207824 -0.11001043 0 0 Z " fill="#FFFFFF" transform="translate(184.6875,59.75)"/>
<path d="M0 0 C4.29 0 8.58 0 13 0 C13.04898438 1.85367188 13.09796875 3.70734375 13.1484375 5.6171875 C13.22345414 8.03647402 13.29900243 10.4557441 13.375 12.875 C13.4059375 14.09832031 13.436875 15.32164063 13.46875 16.58203125 C13.50742188 17.74863281 13.54609375 18.91523437 13.5859375 20.1171875 C13.6173584 21.19597168 13.6487793 22.27475586 13.68115234 23.38623047 C13.74676322 26.15761654 13.74676322 26.15761654 16 28 C20.94460524 29.04597419 23.86038643 28.85660226 29 28 C29.33 18.76 29.66 9.52 30 0 C34.29 0 38.58 0 43 0 C43.06914407 4.02059946 43.12879137 8.03967009 43.16479492 12.06054688 C43.17981428 13.42617816 43.20023608 14.79176176 43.22631836 16.15722656 C43.26300137 18.12803905 43.27818551 20.09921408 43.29296875 22.0703125 C43.3086792 23.25383301 43.32438965 24.43735352 43.34057617 25.65673828 C42.82974197 30.67133584 41.18487051 33.90399478 37.5 37.3125 C32.62605026 40.60241607 27.98288743 40.25108786 22.3125 40.3125 C21.43916016 40.34150391 20.56582031 40.37050781 19.66601562 40.40039062 C13.63341075 40.4589596 8.99951424 39.51390448 4 36 C0.24009332 31.14850751 -0.12596027 26.70357638 -0.09765625 20.703125 C-0.09443359 19.49785156 -0.09121094 18.29257813 -0.08789062 17.05078125 C-0.07951172 15.79652344 -0.07113281 14.54226562 -0.0625 13.25 C-0.05798828 11.98027344 -0.05347656 10.71054688 -0.04882812 9.40234375 C-0.03704566 6.26820905 -0.01911036 3.13409858 0 0 Z " fill="#FFFFFF" transform="translate(214,61)"/>
<path d="M0 0 C4.29 0 8.58 0 13 0 C17.41009734 8.71204516 21.75561602 17.45593574 26 26.25 C26.39759521 27.05928955 26.79519043 27.8685791 27.20483398 28.70239258 C27.57036377 29.46575928 27.93589355 30.22912598 28.3125 31.015625 C28.80169922 32.02544434 28.80169922 32.02544434 29.30078125 33.05566406 C30 35 30 35 30 39 C28.06440687 39.13504138 26.126128 39.23201129 24.1875 39.3125 C23.10855469 39.37050781 22.02960937 39.42851563 20.91796875 39.48828125 C18 39 18 39 16.11328125 36.60546875 C15 34 15 34 15 32 C9.39 32 3.78 32 -2 32 C-2.495 34.475 -2.495 34.475 -3 37 C-3.33 37.66 -3.66 38.32 -4 39 C-7.96 39 -11.92 39 -16 39 C-15.51582279 33.08673519 -14.29236784 28.70482683 -11.62109375 23.4375 C-11.28956802 22.76074219 -10.9580423 22.08398438 -10.61647034 21.38671875 C-9.56773139 19.25221437 -8.50300129 17.12617803 -7.4375 15 C-6.71832302 13.54350055 -6.00021367 12.08647342 -5.28320312 10.62890625 C-3.53440942 7.07972228 -1.77123993 3.53803191 0 0 Z M6 15 C4.515 18.96 4.515 18.96 3 23 C5.31 23 7.62 23 10 23 C9.40138258 20.64828869 8.73075648 18.3140622 8 16 C7.34 15.67 6.68 15.34 6 15 Z " fill="#FFFFFF" transform="translate(568,61)"/>
<path d="M0 0 C4.29 0 8.58 0 13 0 C17.41009734 8.71204516 21.75561602 17.45593574 26 26.25 C26.39759521 27.05928955 26.79519043 27.8685791 27.20483398 28.70239258 C27.57036377 29.46575928 27.93589355 30.22912598 28.3125 31.015625 C28.80169922 32.02544434 28.80169922 32.02544434 29.30078125 33.05566406 C30 35 30 35 30 39 C28.06440687 39.13504138 26.126128 39.23201129 24.1875 39.3125 C23.10855469 39.37050781 22.02960938 39.42851563 20.91796875 39.48828125 C18 39 18 39 16.11328125 36.60546875 C15 34 15 34 15 32 C9.39 32 3.78 32 -2 32 C-2.495 34.475 -2.495 34.475 -3 37 C-3.33 37.66 -3.66 38.32 -4 39 C-7.96 39 -11.92 39 -16 39 C-15.51582279 33.08673519 -14.29236784 28.70482683 -11.62109375 23.4375 C-11.28956802 22.76074219 -10.9580423 22.08398438 -10.61647034 21.38671875 C-9.56773139 19.25221437 -8.50300129 17.12617803 -7.4375 15 C-6.71832302 13.54350055 -6.00021367 12.08647342 -5.28320312 10.62890625 C-3.53440942 7.07972228 -1.77123993 3.53803191 0 0 Z M6 15 C4.515 18.96 4.515 18.96 3 23 C5.31 23 7.62 23 10 23 C9.40138258 20.64828869 8.73075648 18.3140622 8 16 C7.34 15.67 6.68 15.34 6 15 Z " fill="#FFFFFF" transform="translate(282,61)"/>
<path d="M0 0 C2.8605891 1.35937085 4.85927699 2.64520469 7 5 C9.27292941 3.98110061 10.83024561 3.19097369 12.5 1.3125 C12.995 0.879375 13.49 0.44625 14 0 C17.43218038 0.40291977 19.08546307 1.72672593 21.453125 4.16015625 C22.38125 5.1027832 22.38125 5.1027832 23.328125 6.06445312 C23.96234375 6.72380859 24.5965625 7.38316406 25.25 8.0625 C26.22453125 9.05733398 26.22453125 9.05733398 27.21875 10.07226562 C28.8194676 11.70829317 30.41276193 13.35090912 32 15 C29.98032811 19.41709389 27.05893956 22.38119026 23.6875 25.8125 C23.11837891 26.42287109 22.54925781 27.03324219 21.96289062 27.66210938 C17.76846055 31.93358983 17.76846055 31.93358983 14.46875 32.21875 C11.09257833 30.55203234 8.50877389 28.26379136 5.8125 25.6875 C5.27947266 25.20087891 4.74644531 24.71425781 4.19726562 24.21289062 C1.50450659 21.69626174 -0.65775985 19.4667675 -2 16 C-1.34 15.01 -0.68 14.02 0 13 C-5.61 18.61 -11.22 24.22 -17 30 C-21 28 -21 28 -23 26 C-22.84077003 21.79267608 -19.94455116 19.60264457 -17.08984375 16.796875 C-16.60294571 16.3142218 -16.11604767 15.8315686 -15.61439514 15.33428955 C-14.0623455 13.7989915 -12.50017864 12.27447075 -10.9375 10.75 C-9.88147643 9.7090278 -8.82612962 8.6673686 -7.77148438 7.625 C-5.18878585 5.07532367 -2.59691118 2.53520804 0 0 Z " fill="#A2E534" transform="translate(124,70)"/>
<path d="M0 0 C13.86 0 27.72 0 42 0 C42 3.3 42 6.6 42 10 C37.05 10 32.1 10 27 10 C27 19.57 27 29.14 27 39 C23.04 39 19.08 39 15 39 C15 29.43 15 19.86 15 10 C10.05 10 5.1 10 0 10 C0 6.7 0 3.4 0 0 Z " fill="#FFFFFF" transform="translate(507,61)"/>
</svg>
